<svg width="241" height="97" viewBox="0 0 241 97" fill="none" xmlns="http://www.w3.org/2000/svg">
<path d="M26.3997 50.891H10.6057L7.74369 59H1.27769L15.0577 22.165H22.0007L35.7277 59H29.2617L26.3997 50.891ZM24.7037 46.227L18.5027 28.737L12.3017 46.227H24.7037ZM67.3496 42.994C67.3496 43.9833 67.279 44.849 67.1376 45.591H44.6656C44.7716 48.5943 45.602 50.8203 47.1566 52.269C48.7113 53.7177 50.637 54.442 52.9336 54.442C54.9476 54.442 56.6436 53.9297 58.0216 52.905C59.435 51.8803 60.3006 50.52 60.6186 48.824H67.0846C66.696 50.8733 65.8833 52.693 64.6466 54.283C63.41 55.873 61.8023 57.1273 59.8236 58.046C57.845 58.9293 55.6366 59.371 53.1986 59.371C50.372 59.371 47.8633 58.7703 45.6726 57.569C43.5173 56.3677 41.8213 54.6363 40.5846 52.375C39.348 50.1137 38.7296 47.446 38.7296 44.372C38.7296 41.3333 39.348 38.6833 40.5846 36.422C41.8213 34.1607 43.5173 32.4293 45.6726 31.228C47.8633 30.0267 50.372 29.426 53.1986 29.426C56.0606 29.426 58.5516 30.0267 60.6716 31.228C62.827 32.394 64.47 34.0193 65.6006 36.104C66.7666 38.1533 67.3496 40.45 67.3496 42.994ZM61.2546 42.835C61.3253 40.927 60.9896 39.337 60.2476 38.065C59.541 36.7577 58.5516 35.8037 57.2796 35.203C56.043 34.567 54.6826 34.249 53.1986 34.249C50.8313 34.249 48.8526 34.9733 47.2626 36.422C45.6726 37.8707 44.807 40.0083 44.6656 42.835H61.2546Z" fill="white"/>
<path d="M79.2254 35.521C80.2147 33.613 81.628 32.1113 83.4654 31.016C85.3027 29.8853 87.4227 29.32 89.8254 29.32V35.892H88.0234C85.3734 35.892 83.2357 36.5457 81.6104 37.853C80.0204 39.125 79.2254 41.245 79.2254 44.213V59H73.1834V29.797H79.2254V35.521ZM93.5043 21.317C93.5043 20.2923 93.8576 19.4443 94.5643 18.773C95.271 18.1017 96.2073 17.766 97.3733 17.766C98.5393 17.766 99.4756 18.1017 100.182 18.773C100.924 19.4443 101.295 20.2923 101.295 21.317C101.295 22.3417 100.924 23.172 100.182 23.808C99.4756 24.444 98.5393 24.762 97.3733 24.762C96.2073 24.762 95.271 24.444 94.5643 23.808C93.8576 23.172 93.5043 22.3417 93.5043 21.317ZM100.394 29.797V59H94.3523V29.797H100.394ZM122.387 53.753V59H118.677C115.567 59 113.2 58.258 111.575 56.774C109.985 55.2547 109.19 52.746 109.19 49.248V34.938H105.003V29.797H109.19V22.536H115.285V29.797H122.334V34.938H115.285V49.354C115.285 51.0147 115.585 52.163 116.186 52.799C116.822 53.435 117.917 53.753 119.472 53.753H122.387ZM155.183 42.994C155.183 43.9833 155.112 44.849 154.971 45.591H132.499C132.605 48.5943 133.435 50.8203 134.99 52.269C136.544 53.7177 138.47 54.442 140.767 54.442C142.781 54.442 144.477 53.9297 145.855 52.905C147.268 51.8803 148.134 50.52 148.452 48.824H154.918C154.529 50.8733 153.716 52.693 152.48 54.283C151.243 55.873 149.635 57.1273 147.657 58.046C145.678 58.9293 143.47 59.371 141.032 59.371C138.205 59.371 135.696 58.7703 133.506 57.569C131.35 56.3677 129.654 54.6363 128.418 52.375C127.181 50.1137 126.563 47.446 126.563 44.372C126.563 41.3333 127.181 38.6833 128.418 36.422C129.654 34.1607 131.35 32.4293 133.506 31.228C135.696 30.0267 138.205 29.426 141.032 29.426C143.894 29.426 146.385 30.0267 148.505 31.228C150.66 32.394 152.303 34.0193 153.434 36.104C154.6 38.1533 155.183 40.45 155.183 42.994ZM149.088 42.835C149.158 40.927 148.823 39.337 148.081 38.065C147.374 36.7577 146.385 35.8037 145.113 35.203C143.876 34.567 142.516 34.249 141.032 34.249C138.664 34.249 136.686 34.9733 135.096 36.422C133.506 37.8707 132.64 40.0083 132.499 42.835H149.088ZM167.058 35.521C168.048 33.613 169.461 32.1113 171.298 31.016C173.136 29.8853 175.256 29.32 177.658 29.32V35.892H175.856C173.206 35.892 171.069 36.5457 169.443 37.853C167.853 39.125 167.058 41.245 167.058 44.213V59H161.016V29.797H167.058V35.521ZM181.337 21.317C181.337 20.2923 181.691 19.4443 182.397 18.773C183.104 18.1017 184.04 17.766 185.206 17.766C186.372 17.766 187.309 18.1017 188.015 18.773C188.757 19.4443 189.128 20.2923 189.128 21.317C189.128 22.3417 188.757 23.172 188.015 23.808C187.309 24.444 186.372 24.762 185.206 24.762C184.04 24.762 183.104 24.444 182.397 23.808C181.691 23.172 181.337 22.3417 181.337 21.317ZM188.227 29.797V59H182.185V29.797H188.227ZM207.252 29.426C209.902 29.426 212.163 30.0797 214.036 31.387C215.909 32.6943 217.234 34.4257 218.011 36.581V29.797H224.053V59H218.011V52.216C217.234 54.3713 215.909 56.1027 214.036 57.41C212.163 58.7173 209.902 59.371 207.252 59.371C204.708 59.371 202.429 58.7703 200.415 57.569C198.436 56.3677 196.882 54.6363 195.751 52.375C194.62 50.1137 194.055 47.446 194.055 44.372C194.055 41.3333 194.62 38.6833 195.751 36.422C196.882 34.1607 198.436 32.4293 200.415 31.228C202.429 30.0267 204.708 29.426 207.252 29.426ZM209.107 34.726C206.422 34.726 204.266 35.5917 202.641 37.323C201.051 39.019 200.256 41.3687 200.256 44.372C200.256 47.3753 201.051 49.7427 202.641 51.474C204.266 53.17 206.422 54.018 209.107 54.018C210.803 54.018 212.322 53.6293 213.665 52.852C215.008 52.0393 216.068 50.9087 216.845 49.46C217.622 48.0113 218.011 46.3153 218.011 44.372C218.011 42.464 217.622 40.7857 216.845 39.337C216.068 37.853 215.008 36.7223 213.665 35.945C212.322 35.1323 210.803 34.726 209.107 34.726ZM237.345 19.78V59H231.303V19.78H237.345Z" fill="#F7F026"/>
<path d="M109.817 71.716V88H105.309V81.422H99.7886V88H95.2576V71.716H99.7886V77.811H105.309V71.716H109.817ZM122.609 85.286H116.836L115.939 88H111.178L117.135 71.785H122.356L128.29 88H123.506L122.609 85.286ZM121.482 81.882L119.734 76.592L117.963 81.882H121.482ZM134.154 71.716V88H129.623V71.716H134.154ZM144.933 88L141.644 81.997H141.184V88H136.653V71.716H143.806C145.109 71.716 146.213 71.946 147.118 72.406C148.038 72.8507 148.728 73.4717 149.188 74.269C149.648 75.0663 149.878 75.9633 149.878 76.96C149.878 78.0947 149.564 79.0837 148.935 79.927C148.306 80.755 147.402 81.3377 146.221 81.675L149.924 88H144.933ZM141.184 78.961H143.415C144.672 78.961 145.301 78.3937 145.301 77.259C145.301 76.7223 145.14 76.3007 144.818 75.994C144.511 75.6873 144.044 75.534 143.415 75.534H141.184V78.961ZM168.069 83.308C168.069 84.2127 167.839 85.033 167.379 85.769C166.919 86.505 166.244 87.0877 165.355 87.517C164.465 87.9463 163.4 88.161 162.158 88.161C160.272 88.161 158.715 87.7087 157.489 86.804C156.277 85.8993 155.618 84.6113 155.511 82.94H160.318C160.364 83.5073 160.54 83.929 160.847 84.205C161.153 84.481 161.529 84.619 161.974 84.619C162.372 84.619 162.679 84.5193 162.894 84.32C163.124 84.1207 163.239 83.837 163.239 83.469C163.239 82.9783 163.016 82.6027 162.572 82.342C162.127 82.066 161.422 81.767 160.456 81.445C159.428 81.0923 158.577 80.7473 157.903 80.41C157.243 80.0727 156.668 79.5667 156.178 78.892C155.702 78.2173 155.465 77.351 155.465 76.293C155.465 75.281 155.725 74.4147 156.247 73.694C156.768 72.958 157.481 72.406 158.386 72.038C159.29 71.6547 160.318 71.463 161.468 71.463C163.338 71.463 164.826 71.9077 165.93 72.797C167.049 73.671 167.662 74.9053 167.77 76.5H162.917C162.855 75.994 162.694 75.6183 162.434 75.373C162.188 75.1277 161.859 75.005 161.445 75.005C161.092 75.005 160.816 75.097 160.617 75.281C160.417 75.465 160.318 75.741 160.318 76.109C160.318 76.569 160.532 76.9293 160.962 77.19C161.406 77.4507 162.096 77.742 163.032 78.064C164.059 78.432 164.91 78.7923 165.585 79.145C166.259 79.4977 166.842 80.0113 167.333 80.686C167.823 81.3607 168.069 82.2347 168.069 83.308ZM182.312 71.716V75.327H177.919V88H173.411V75.327H169.064V71.716H182.312ZM188.215 71.716V81.008C188.215 81.928 188.414 82.641 188.813 83.147C189.227 83.6377 189.848 83.883 190.676 83.883C191.504 83.883 192.125 83.63 192.539 83.124C192.968 82.618 193.183 81.9127 193.183 81.008V71.716H197.691V81.008C197.691 82.5413 197.376 83.8447 196.748 84.918C196.134 85.9913 195.291 86.804 194.218 87.356C193.144 87.8927 191.933 88.161 190.584 88.161C189.234 88.161 188.038 87.8927 186.996 87.356C185.968 86.8193 185.163 86.0143 184.581 84.941C183.998 83.8677 183.707 82.5567 183.707 81.008V71.716H188.215ZM215.033 79.812C215.033 81.3913 214.688 82.802 213.998 84.044C213.308 85.2707 212.326 86.2367 211.054 86.942C209.781 87.6473 208.286 88 206.569 88H200.083V71.716H206.569C208.286 71.716 209.781 72.061 211.054 72.751C212.342 73.4257 213.323 74.3763 213.998 75.603C214.688 76.8297 215.033 78.2327 215.033 79.812ZM206.155 83.952C207.489 83.952 208.539 83.5917 209.306 82.871C210.072 82.1503 210.456 81.1307 210.456 79.812C210.456 78.5087 210.072 77.4967 209.306 76.776C208.539 76.04 207.489 75.672 206.155 75.672H204.614V83.952H206.155ZM221.594 71.716V88H217.063V71.716H221.594ZM231.937 71.463C233.47 71.463 234.865 71.8233 236.123 72.544C237.395 73.2493 238.392 74.2383 239.113 75.511C239.849 76.7837 240.217 78.2173 240.217 79.812C240.217 81.4067 239.849 82.8403 239.113 84.113C238.377 85.3857 237.372 86.3823 236.1 87.103C234.842 87.8083 233.455 88.161 231.937 88.161C230.419 88.161 229.023 87.8083 227.751 87.103C226.478 86.3823 225.474 85.3857 224.738 84.113C224.002 82.8403 223.634 81.4067 223.634 79.812C223.634 78.2173 224.002 76.7837 224.738 75.511C225.474 74.2383 226.478 73.2493 227.751 72.544C229.023 71.8233 230.419 71.463 231.937 71.463ZM231.937 75.649C230.787 75.649 229.882 76.0247 229.223 76.776C228.563 77.512 228.234 78.524 228.234 79.812C228.234 81.0693 228.563 82.0737 229.223 82.825C229.882 83.5763 230.787 83.952 231.937 83.952C233.071 83.952 233.968 83.5763 234.628 82.825C235.287 82.0737 235.617 81.0693 235.617 79.812C235.617 78.524 235.287 77.512 234.628 76.776C233.984 76.0247 233.087 75.649 231.937 75.649Z" fill="white"/>
</svg>
