<svg width="19" height="22" viewBox="0 0 19 22" fill="none" xmlns="http://www.w3.org/2000/svg">
<path d="M15.1667 7.00029C15.1667 5.49739 14.5696 4.05605 13.5069 2.99335C12.4442 1.93064 11.0029 1.33362 9.5 1.33362C7.99711 1.33362 6.55577 1.93064 5.49306 2.99335C4.43036 4.05605 3.83333 5.49739 3.83333 7.00029C3.83333 13.6114 1 15.5003 1 15.5003H18C18 15.5003 15.1667 13.6114 15.1667 7.00029Z" stroke="white" stroke-width="2" stroke-linecap="round" stroke-linejoin="round"/>
<path d="M11.1339 19.278C10.9679 19.5643 10.7295 19.8019 10.4428 19.967C10.156 20.1322 9.83092 20.2191 9.50001 20.2191C9.16909 20.2191 8.84399 20.1322 8.55724 19.967C8.27049 19.8019 8.03216 19.5643 7.86612 19.278" stroke="white" stroke-width="2" stroke-linecap="round" stroke-linejoin="round"/>
</svg>
